<svg width="23" height="23" viewBox="0 0 23 23" fill="none" xmlns="http://www.w3.org/2000/svg">
<path d="M2.59041 19.6428C2.59041 17.2747 2.04443 3.68311 2.04443 3.68311H21.4666V19.6428C21.4666 22.4057 2.59041 22.011 2.59041 19.6428Z" fill="#F9F9F9" stroke="#D25555" stroke-width="2"/>
<path d="M6.74707 7.30347V18.2999" stroke="#D25555" stroke-width="2"/>
<path d="M12.5483 6.47302V19.1612" stroke="#D25555" stroke-width="2"/>
<path d="M18.3491 7.30347V18.2999" stroke="#D25555" stroke-width="2"/>
<path d="M0 3.23587H6.13333H0ZM23 3.23587H17.8889H23ZM17.8889 3.23587V2.10391C17.8889 1.49424 17.324 1 16.6271 1H7.39507C6.6982 1 6.13333 1.49424 6.13333 2.10391V3.23587H17.8889ZM17.8889 3.23587H6.13333H17.8889Z" fill="#F9F9F9"/>
<path d="M17.8889 3.23587H6.13333M0 3.23587H6.13333H0ZM23 3.23587H17.8889H23ZM17.8889 3.23587V2.10391C17.8889 1.49424 17.324 1 16.6271 1H7.39507C6.6982 1 6.13333 1.49424 6.13333 2.10391V3.23587H17.8889Z" stroke="#D25555" stroke-width="2"/>
</svg>
